<?xml version="1.0" standalone="no"?><!DOCTYPE svg PUBLIC "-//W3C//DTD SVG 1.1//EN" "http://www.w3.org/Graphics/SVG/1.1/DTD/svg11.dtd"><svg t="1512719909347" class="icon" style="" viewBox="0 0 1024 1024" version="1.1" xmlns="http://www.w3.org/2000/svg" p-id="7653" xmlns:xlink="http://www.w3.org/1999/xlink" width="65" height="65"><defs><style type="text/css"></style></defs><path d="M794.151385 135.798154c190.936615 103.502769 276.322462 313.344 190.779077 468.676923s-309.563077 197.395692-500.342154 94.523077-276.322462-313.974154-190.936616-469.307077S603.214769 32.295385 794.151385 135.798154z" fill="#7A9FD8" p-id="7654"></path><path d="M582.104615 539.884308l-123.510153-110.276923 92.16-157.538462 96.413538-84.283077 11.500308-69.474461 24.260923 4.096-12.918154 78.76923-100.036923 87.591385L489.787077 425.353846l97.516308 86.646154 82.077538-31.507692-12.445538-86.646154 115.790769-28.987077 48.206769 48.364308 66.166154-27.569231 9.452308 22.685538-81.289847 33.87077-50.09723-50.097231-80.817231 20.164923 11.972923 84.755692z m0 0" fill="#343F64" p-id="7655"></path><path d="M837.316923 691.121231c-18.904615 0-39.542154 0-61.282461-2.205539a1323.323077 1323.323077 0 0 1-312.241231-60.652307 1194.456615 1194.456615 0 0 1-302.631385-165.415385 691.593846 691.593846 0 0 1-109.174154-97.988923C21.425231 329.097846 9.452308 300.425846 15.753846 277.425231c3.465846-13.863385 15.753846-31.507692 50.884923-38.439385a353.043692 353.043692 0 0 1 111.537231 3.623385L173.292308 271.753846A325.316923 325.316923 0 0 0 71.364923 267.815385c-15.753846 3.150769-25.836308 8.664615-27.726769 16.541538-5.513846 22.685538 34.028308 78.769231 135.168 154.860308A1168.462769 1168.462769 0 0 0 472.615385 600.379077a1284.726154 1284.726154 0 0 0 304.836923 59.076923c125.085538 8.664615 181.169231-9.452308 191.724307-29.144615 4.096-7.561846 1.890462-17.801846-5.986461-31.507693a263.404308 263.404308 0 0 0-63.015385-63.015384l18.116923-23.315693a286.877538 286.877538 0 0 1 69.632 70.262154 58.446769 58.446769 0 0 1 6.931693 60.337231c-11.342769 20.952615-38.281846 34.658462-82.235077 41.747692a513.732923 513.732923 0 0 1-76.248616 5.041231z m0 0" fill="#343F64" p-id="7656"></path><path d="M504.123077 913.723077A421.257846 421.257846 0 0 1 340.125538 104.605538a420.785231 420.785231 0 0 1 461.745231 90.269539 422.518154 422.518154 0 0 1 90.269539 133.907692 420.785231 420.785231 0 0 1-90.269539 461.745231A419.84 419.84 0 0 1 504.123077 913.723077z m0-812.740923a391.640615 391.640615 0 0 0-276.952615 668.593231A391.640615 391.640615 0 1 0 780.918154 215.827692 388.647385 388.647385 0 0 0 504.123077 100.982154z m0 0" fill="#343F64" p-id="7657"></path></svg>